<mxfile host="app.diagrams.net" modified="2024-05-31T22:52:11.162Z" agent="Mozilla/5.0 (Windows NT 10.0; Win64; x64) AppleWebKit/537.36 (KHTML, like Gecko) Chrome/125.0.0.0 Safari/537.36" etag="7emrJR_euFP4uBrkx3kD" version="24.4.13" type="device">
  <diagram id="R2lEEEUBdFMjLlhIrx00" name="Page-1">
    <mxGraphModel dx="2950" dy="2292" grid="1" gridSize="10" guides="1" tooltips="1" connect="1" arrows="1" fold="1" page="1" pageScale="1" pageWidth="850" pageHeight="1100" math="0" shadow="0" extFonts="Permanent Marker^https://fonts.googleapis.com/css?family=Permanent+Marker">
      <root>
        <mxCell id="0" />
        <mxCell id="1" parent="0" />
        <mxCell id="14B_oREcPOsQsigrCazK-3" value="&lt;font style=&quot;font-size: 18px;&quot;&gt;Track&lt;/font&gt;" style="rounded=0;whiteSpace=wrap;html=1;" parent="1" vertex="1">
          <mxGeometry x="-125" y="540" width="90" height="40" as="geometry" />
        </mxCell>
        <mxCell id="14B_oREcPOsQsigrCazK-4" value="" style="endArrow=none;html=1;rounded=0;exitX=0;exitY=0.75;exitDx=0;exitDy=0;" parent="1" target="14B_oREcPOsQsigrCazK-5" edge="1" source="14B_oREcPOsQsigrCazK-3">
          <mxGeometry width="50" height="50" relative="1" as="geometry">
            <mxPoint x="-150" y="782.27" as="sourcePoint" />
            <mxPoint x="-160" y="722.27" as="targetPoint" />
          </mxGeometry>
        </mxCell>
        <mxCell id="14B_oREcPOsQsigrCazK-5" value="&lt;u&gt;&lt;font style=&quot;font-size: 18px;&quot;&gt;ID&lt;/font&gt;&lt;/u&gt;" style="ellipse;whiteSpace=wrap;html=1;" parent="1" vertex="1">
          <mxGeometry x="-240" y="577.03" width="80" height="40" as="geometry" />
        </mxCell>
        <mxCell id="14B_oREcPOsQsigrCazK-6" value="&lt;font style=&quot;font-size: 18px;&quot;&gt;name&lt;/font&gt;" style="ellipse;whiteSpace=wrap;html=1;" parent="1" vertex="1">
          <mxGeometry x="-205" y="634.04" width="80" height="40" as="geometry" />
        </mxCell>
        <mxCell id="14B_oREcPOsQsigrCazK-7" value="" style="endArrow=none;html=1;rounded=0;entryX=0.736;entryY=-0.009;entryDx=0;entryDy=0;entryPerimeter=0;exitX=0.25;exitY=1;exitDx=0;exitDy=0;" parent="1" target="14B_oREcPOsQsigrCazK-6" edge="1" source="14B_oREcPOsQsigrCazK-3">
          <mxGeometry width="50" height="50" relative="1" as="geometry">
            <mxPoint x="-80" y="782.27" as="sourcePoint" />
            <mxPoint x="-30" y="732.27" as="targetPoint" />
          </mxGeometry>
        </mxCell>
        <mxCell id="14B_oREcPOsQsigrCazK-9" value="Intake" style="rounded=0;whiteSpace=wrap;html=1;" parent="1" vertex="1">
          <mxGeometry x="720" y="171.36" width="120" height="60" as="geometry" />
        </mxCell>
        <mxCell id="14B_oREcPOsQsigrCazK-10" value="" style="endArrow=none;html=1;rounded=0;exitX=0.25;exitY=0;exitDx=0;exitDy=0;" parent="1" target="14B_oREcPOsQsigrCazK-11" edge="1" source="14B_oREcPOsQsigrCazK-9">
          <mxGeometry width="50" height="50" relative="1" as="geometry">
            <mxPoint x="544.53" y="161.36" as="sourcePoint" />
            <mxPoint x="534.53" y="101.36" as="targetPoint" />
          </mxGeometry>
        </mxCell>
        <mxCell id="14B_oREcPOsQsigrCazK-11" value="&lt;u&gt;id&lt;/u&gt;" style="ellipse;whiteSpace=wrap;html=1;" parent="1" vertex="1">
          <mxGeometry x="640" y="102.97" width="80" height="40" as="geometry" />
        </mxCell>
        <mxCell id="14B_oREcPOsQsigrCazK-12" value="name" style="ellipse;whiteSpace=wrap;html=1;" parent="1" vertex="1">
          <mxGeometry x="720" y="80" width="80" height="40" as="geometry" />
        </mxCell>
        <mxCell id="14B_oREcPOsQsigrCazK-13" value="" style="endArrow=none;html=1;rounded=0;entryX=0.413;entryY=0.95;entryDx=0;entryDy=0;entryPerimeter=0;exitX=0.5;exitY=0;exitDx=0;exitDy=0;" parent="1" target="14B_oREcPOsQsigrCazK-12" edge="1" source="14B_oREcPOsQsigrCazK-9">
          <mxGeometry width="50" height="50" relative="1" as="geometry">
            <mxPoint x="594.53" y="161.36" as="sourcePoint" />
            <mxPoint x="644.53" y="111.36" as="targetPoint" />
          </mxGeometry>
        </mxCell>
        <mxCell id="14B_oREcPOsQsigrCazK-14" value="&lt;font style=&quot;font-size: 18px;&quot;&gt;branch&lt;/font&gt;" style="rounded=0;whiteSpace=wrap;html=1;" parent="1" vertex="1">
          <mxGeometry x="444.53" y="415" width="120" height="60" as="geometry" />
        </mxCell>
        <mxCell id="14B_oREcPOsQsigrCazK-15" value="" style="endArrow=none;html=1;rounded=0;exitX=0.25;exitY=0;exitDx=0;exitDy=0;" parent="1" target="14B_oREcPOsQsigrCazK-16" edge="1" source="14B_oREcPOsQsigrCazK-14">
          <mxGeometry width="50" height="50" relative="1" as="geometry">
            <mxPoint x="544.53" y="341.36" as="sourcePoint" />
            <mxPoint x="534.53" y="281.36" as="targetPoint" />
          </mxGeometry>
        </mxCell>
        <mxCell id="14B_oREcPOsQsigrCazK-16" value="&lt;u&gt;&lt;font style=&quot;font-size: 18px;&quot;&gt;ID&lt;/font&gt;&lt;/u&gt;" style="ellipse;whiteSpace=wrap;html=1;" parent="1" vertex="1">
          <mxGeometry x="385.53" y="330" width="80" height="40" as="geometry" />
        </mxCell>
        <mxCell id="14B_oREcPOsQsigrCazK-17" value="&lt;font style=&quot;font-size: 18px;&quot;&gt;name&lt;/font&gt;" style="ellipse;whiteSpace=wrap;html=1;" parent="1" vertex="1">
          <mxGeometry x="470" y="310" width="80" height="40" as="geometry" />
        </mxCell>
        <mxCell id="14B_oREcPOsQsigrCazK-18" value="" style="endArrow=none;html=1;rounded=0;entryX=0.413;entryY=0.95;entryDx=0;entryDy=0;entryPerimeter=0;exitX=0.5;exitY=0;exitDx=0;exitDy=0;" parent="1" target="14B_oREcPOsQsigrCazK-17" edge="1" source="14B_oREcPOsQsigrCazK-14">
          <mxGeometry width="50" height="50" relative="1" as="geometry">
            <mxPoint x="614.53" y="341.36" as="sourcePoint" />
            <mxPoint x="664.53" y="291.36" as="targetPoint" />
          </mxGeometry>
        </mxCell>
        <mxCell id="14B_oREcPOsQsigrCazK-19" value="&lt;font style=&quot;font-size: 18px;&quot;&gt;Student&lt;/font&gt;" style="rounded=0;whiteSpace=wrap;html=1;" parent="1" vertex="1">
          <mxGeometry x="194.52999999999997" y="161.36" width="170" height="60" as="geometry" />
        </mxCell>
        <mxCell id="14B_oREcPOsQsigrCazK-20" value="" style="endArrow=none;html=1;rounded=0;exitX=0.25;exitY=0;exitDx=0;exitDy=0;" parent="1" target="14B_oREcPOsQsigrCazK-21" edge="1" source="14B_oREcPOsQsigrCazK-19">
          <mxGeometry width="50" height="50" relative="1" as="geometry">
            <mxPoint x="224.52999999999997" y="161.36" as="sourcePoint" />
            <mxPoint x="214.52999999999997" y="101.36" as="targetPoint" />
          </mxGeometry>
        </mxCell>
        <mxCell id="14B_oREcPOsQsigrCazK-21" value="&lt;u&gt;&lt;font style=&quot;font-size: 18px;&quot;&gt;ID&lt;/font&gt;&lt;/u&gt;" style="ellipse;whiteSpace=wrap;html=1;" parent="1" vertex="1">
          <mxGeometry x="169.99999999999997" y="61.36" width="80" height="40" as="geometry" />
        </mxCell>
        <mxCell id="14B_oREcPOsQsigrCazK-22" value="&lt;font style=&quot;font-size: 18px;&quot;&gt;name&lt;/font&gt;" style="ellipse;whiteSpace=wrap;html=1;" parent="1" vertex="1">
          <mxGeometry x="229.52999999999997" y="10" width="80" height="40" as="geometry" />
        </mxCell>
        <mxCell id="14B_oREcPOsQsigrCazK-23" value="" style="endArrow=none;html=1;rounded=0;entryX=0.5;entryY=0.95;entryDx=0;entryDy=0;entryPerimeter=0;exitX=0.5;exitY=0;exitDx=0;exitDy=0;" parent="1" target="14B_oREcPOsQsigrCazK-22" edge="1" source="14B_oREcPOsQsigrCazK-19">
          <mxGeometry width="50" height="50" relative="1" as="geometry">
            <mxPoint x="294.53" y="161.36" as="sourcePoint" />
            <mxPoint x="344.53" y="111.36" as="targetPoint" />
          </mxGeometry>
        </mxCell>
        <mxCell id="14B_oREcPOsQsigrCazK-24" value="&lt;font style=&quot;font-size: 18px;&quot;&gt;join&lt;/font&gt;" style="rhombus;whiteSpace=wrap;html=1;" parent="1" vertex="1">
          <mxGeometry x="-120" y="330" width="80" height="60" as="geometry" />
        </mxCell>
        <mxCell id="14B_oREcPOsQsigrCazK-25" value="&lt;font style=&quot;font-size: 18px;&quot;&gt;join&lt;/font&gt;" style="rhombus;whiteSpace=wrap;html=1;" parent="1" vertex="1">
          <mxGeometry x="494.53" y="171.36" width="95.47" height="60" as="geometry" />
        </mxCell>
        <mxCell id="14B_oREcPOsQsigrCazK-33" value="" style="endArrow=none;html=1;rounded=0;entryX=0.5;entryY=1;entryDx=0;entryDy=0;exitX=0.5;exitY=0;exitDx=0;exitDy=0;" parent="1" source="14B_oREcPOsQsigrCazK-3" target="14B_oREcPOsQsigrCazK-24" edge="1">
          <mxGeometry width="50" height="50" relative="1" as="geometry">
            <mxPoint x="120" y="200" as="sourcePoint" />
            <mxPoint x="170" y="190" as="targetPoint" />
          </mxGeometry>
        </mxCell>
        <mxCell id="B5UOWCQT7WB5_f8kOvTA-18" value="1" style="edgeLabel;html=1;align=center;verticalAlign=middle;resizable=0;points=[];" vertex="1" connectable="0" parent="14B_oREcPOsQsigrCazK-33">
          <mxGeometry x="-0.6872" y="-1" relative="1" as="geometry">
            <mxPoint as="offset" />
          </mxGeometry>
        </mxCell>
        <mxCell id="14B_oREcPOsQsigrCazK-35" value="" style="endArrow=none;html=1;rounded=0;entryX=0;entryY=0.5;entryDx=0;entryDy=0;exitX=0.5;exitY=0;exitDx=0;exitDy=0;entryPerimeter=0;" parent="1" source="14B_oREcPOsQsigrCazK-24" target="14B_oREcPOsQsigrCazK-19" edge="1">
          <mxGeometry width="50" height="50" relative="1" as="geometry">
            <mxPoint x="260" y="195" as="sourcePoint" />
            <mxPoint x="310" y="185" as="targetPoint" />
            <Array as="points">
              <mxPoint x="-80" y="190" />
            </Array>
          </mxGeometry>
        </mxCell>
        <mxCell id="B5UOWCQT7WB5_f8kOvTA-17" value="M" style="edgeLabel;html=1;align=center;verticalAlign=middle;resizable=0;points=[];" vertex="1" connectable="0" parent="14B_oREcPOsQsigrCazK-35">
          <mxGeometry x="0.9313" y="1" relative="1" as="geometry">
            <mxPoint as="offset" />
          </mxGeometry>
        </mxCell>
        <mxCell id="14B_oREcPOsQsigrCazK-56" value="" style="endArrow=none;html=1;rounded=0;entryX=0;entryY=0.5;entryDx=0;entryDy=0;" parent="1" target="14B_oREcPOsQsigrCazK-25" edge="1">
          <mxGeometry width="50" height="50" relative="1" as="geometry">
            <mxPoint x="364.53" y="201.36" as="sourcePoint" />
            <mxPoint x="414.53" y="151.36" as="targetPoint" />
          </mxGeometry>
        </mxCell>
        <mxCell id="B5UOWCQT7WB5_f8kOvTA-31" value="M" style="edgeLabel;html=1;align=center;verticalAlign=middle;resizable=0;points=[];" vertex="1" connectable="0" parent="14B_oREcPOsQsigrCazK-56">
          <mxGeometry x="-0.7584" y="1" relative="1" as="geometry">
            <mxPoint as="offset" />
          </mxGeometry>
        </mxCell>
        <mxCell id="14B_oREcPOsQsigrCazK-61" value="" style="endArrow=none;html=1;rounded=0;entryX=0;entryY=0.5;entryDx=0;entryDy=0;exitX=1;exitY=0.5;exitDx=0;exitDy=0;" parent="1" target="14B_oREcPOsQsigrCazK-9" edge="1" source="14B_oREcPOsQsigrCazK-25">
          <mxGeometry width="50" height="50" relative="1" as="geometry">
            <mxPoint x="600" y="180" as="sourcePoint" />
            <mxPoint x="414.53" y="151.36" as="targetPoint" />
            <Array as="points" />
          </mxGeometry>
        </mxCell>
        <mxCell id="B5UOWCQT7WB5_f8kOvTA-32" value="1" style="edgeLabel;html=1;align=center;verticalAlign=middle;resizable=0;points=[];" vertex="1" connectable="0" parent="14B_oREcPOsQsigrCazK-61">
          <mxGeometry x="0.7626" y="1" relative="1" as="geometry">
            <mxPoint as="offset" />
          </mxGeometry>
        </mxCell>
        <mxCell id="14B_oREcPOsQsigrCazK-63" value="&lt;font style=&quot;font-size: 18px;&quot;&gt;include&lt;/font&gt;" style="rhombus;whiteSpace=wrap;html=1;" parent="1" vertex="1">
          <mxGeometry x="239.76" y="410.68" width="79.53" height="68.64" as="geometry" />
        </mxCell>
        <mxCell id="14B_oREcPOsQsigrCazK-64" value="" style="endArrow=none;html=1;rounded=0;entryX=0;entryY=0.5;entryDx=0;entryDy=0;exitX=1;exitY=0.5;exitDx=0;exitDy=0;" parent="1" source="14B_oREcPOsQsigrCazK-63" target="14B_oREcPOsQsigrCazK-14" edge="1">
          <mxGeometry width="50" height="50" relative="1" as="geometry">
            <mxPoint x="364.53" y="341.36" as="sourcePoint" />
            <mxPoint x="414.53" y="291.36" as="targetPoint" />
          </mxGeometry>
        </mxCell>
        <mxCell id="B5UOWCQT7WB5_f8kOvTA-28" value="1" style="edgeLabel;html=1;align=center;verticalAlign=middle;resizable=0;points=[];" vertex="1" connectable="0" parent="14B_oREcPOsQsigrCazK-64">
          <mxGeometry x="0.8054" y="3" relative="1" as="geometry">
            <mxPoint as="offset" />
          </mxGeometry>
        </mxCell>
        <mxCell id="14B_oREcPOsQsigrCazK-65" value="" style="endArrow=none;html=1;rounded=0;exitX=0.5;exitY=1;exitDx=0;exitDy=0;" parent="1" source="14B_oREcPOsQsigrCazK-19" target="14B_oREcPOsQsigrCazK-63" edge="1">
          <mxGeometry width="50" height="50" relative="1" as="geometry">
            <mxPoint x="364.53" y="341.36" as="sourcePoint" />
            <mxPoint x="414.53" y="291.36" as="targetPoint" />
          </mxGeometry>
        </mxCell>
        <mxCell id="B5UOWCQT7WB5_f8kOvTA-29" value="M" style="edgeLabel;html=1;align=center;verticalAlign=middle;resizable=0;points=[];" vertex="1" connectable="0" parent="14B_oREcPOsQsigrCazK-65">
          <mxGeometry x="-0.7265" y="-1" relative="1" as="geometry">
            <mxPoint y="-1" as="offset" />
          </mxGeometry>
        </mxCell>
        <mxCell id="14B_oREcPOsQsigrCazK-68" value="&lt;font style=&quot;font-size: 18px;&quot;&gt;Email&lt;/font&gt;" style="ellipse;whiteSpace=wrap;html=1;" parent="1" vertex="1">
          <mxGeometry x="290" y="67.97" width="80" height="40" as="geometry" />
        </mxCell>
        <mxCell id="14B_oREcPOsQsigrCazK-69" value="" style="endArrow=none;html=1;rounded=0;entryX=0.5;entryY=1;entryDx=0;entryDy=0;exitX=0.75;exitY=0;exitDx=0;exitDy=0;" parent="1" source="14B_oREcPOsQsigrCazK-19" target="14B_oREcPOsQsigrCazK-68" edge="1">
          <mxGeometry width="50" height="50" relative="1" as="geometry">
            <mxPoint x="184.52999999999997" y="141.36" as="sourcePoint" />
            <mxPoint x="234.52999999999997" y="91.36" as="targetPoint" />
          </mxGeometry>
        </mxCell>
        <mxCell id="14B_oREcPOsQsigrCazK-70" value="&lt;font style=&quot;font-size: 18px;&quot;&gt;User&lt;/font&gt;" style="rounded=0;whiteSpace=wrap;html=1;" parent="1" vertex="1">
          <mxGeometry x="-423.75" y="160" width="120" height="60" as="geometry" />
        </mxCell>
        <mxCell id="14B_oREcPOsQsigrCazK-71" value="&lt;u&gt;&lt;font style=&quot;font-size: 18px;&quot;&gt;ID&lt;/font&gt;&lt;/u&gt;" style="ellipse;whiteSpace=wrap;html=1;" parent="1" vertex="1">
          <mxGeometry x="-470" y="70" width="50" height="30" as="geometry" />
        </mxCell>
        <mxCell id="14B_oREcPOsQsigrCazK-72" value="&lt;font style=&quot;font-size: 18px;&quot;&gt;Password&lt;/font&gt;" style="ellipse;whiteSpace=wrap;html=1;" parent="1" vertex="1">
          <mxGeometry x="-425" y="42.97" width="100" height="30" as="geometry" />
        </mxCell>
        <mxCell id="14B_oREcPOsQsigrCazK-73" value="&lt;font style=&quot;font-size: 18px;&quot;&gt;UserName&lt;/font&gt;" style="ellipse;whiteSpace=wrap;html=1;" parent="1" vertex="1">
          <mxGeometry x="-340" y="70" width="100" height="32.97" as="geometry" />
        </mxCell>
        <mxCell id="14B_oREcPOsQsigrCazK-74" value="" style="endArrow=none;html=1;rounded=0;exitX=0.911;exitY=-0.021;exitDx=0;exitDy=0;exitPerimeter=0;entryX=0.5;entryY=1;entryDx=0;entryDy=0;" parent="1" source="14B_oREcPOsQsigrCazK-70" target="14B_oREcPOsQsigrCazK-73" edge="1">
          <mxGeometry width="50" height="50" relative="1" as="geometry">
            <mxPoint x="-175" y="112.97" as="sourcePoint" />
            <mxPoint x="-300" y="102.97" as="targetPoint" />
          </mxGeometry>
        </mxCell>
        <mxCell id="14B_oREcPOsQsigrCazK-75" value="" style="endArrow=none;html=1;rounded=0;entryX=0.5;entryY=1;entryDx=0;entryDy=0;exitX=0.5;exitY=0;exitDx=0;exitDy=0;" parent="1" source="14B_oREcPOsQsigrCazK-70" target="14B_oREcPOsQsigrCazK-72" edge="1">
          <mxGeometry width="50" height="50" relative="1" as="geometry">
            <mxPoint x="-375" y="152.97" as="sourcePoint" />
            <mxPoint x="-125" y="62.97" as="targetPoint" />
          </mxGeometry>
        </mxCell>
        <mxCell id="14B_oREcPOsQsigrCazK-76" value="" style="endArrow=none;html=1;rounded=0;entryX=0.5;entryY=1;entryDx=0;entryDy=0;exitX=0.083;exitY=0;exitDx=0;exitDy=0;exitPerimeter=0;" parent="1" source="14B_oREcPOsQsigrCazK-70" target="14B_oREcPOsQsigrCazK-71" edge="1">
          <mxGeometry width="50" height="50" relative="1" as="geometry">
            <mxPoint x="-175" y="112.97" as="sourcePoint" />
            <mxPoint x="-125" y="62.97" as="targetPoint" />
          </mxGeometry>
        </mxCell>
        <mxCell id="14B_oREcPOsQsigrCazK-77" value="&lt;font style=&quot;font-size: 18px;&quot;&gt;has&lt;/font&gt;" style="rhombus;whiteSpace=wrap;html=1;" parent="1" vertex="1">
          <mxGeometry x="-70" y="150" width="70" height="50" as="geometry" />
        </mxCell>
        <mxCell id="14B_oREcPOsQsigrCazK-78" value="" style="endArrow=none;html=1;rounded=0;exitX=1;exitY=0.5;exitDx=0;exitDy=0;entryX=0;entryY=0.25;entryDx=0;entryDy=0;" parent="1" source="14B_oREcPOsQsigrCazK-77" edge="1" target="14B_oREcPOsQsigrCazK-19">
          <mxGeometry width="50" height="50" relative="1" as="geometry">
            <mxPoint x="270" y="270" as="sourcePoint" />
            <mxPoint x="320" y="220" as="targetPoint" />
          </mxGeometry>
        </mxCell>
        <mxCell id="B5UOWCQT7WB5_f8kOvTA-7" value="1" style="edgeLabel;html=1;align=center;verticalAlign=middle;resizable=0;points=[];" vertex="1" connectable="0" parent="14B_oREcPOsQsigrCazK-78">
          <mxGeometry x="0.8691" y="6" relative="1" as="geometry">
            <mxPoint x="1" as="offset" />
          </mxGeometry>
        </mxCell>
        <mxCell id="14B_oREcPOsQsigrCazK-80" value="" style="endArrow=none;html=1;rounded=0;entryX=0;entryY=0.5;entryDx=0;entryDy=0;exitX=1;exitY=0.25;exitDx=0;exitDy=0;" parent="1" source="14B_oREcPOsQsigrCazK-70" target="14B_oREcPOsQsigrCazK-77" edge="1">
          <mxGeometry width="50" height="50" relative="1" as="geometry">
            <mxPoint x="115" y="352.01" as="sourcePoint" />
            <mxPoint x="165" y="302.01" as="targetPoint" />
          </mxGeometry>
        </mxCell>
        <mxCell id="B5UOWCQT7WB5_f8kOvTA-6" value="1" style="edgeLabel;html=1;align=center;verticalAlign=middle;resizable=0;points=[];" vertex="1" connectable="0" parent="14B_oREcPOsQsigrCazK-80">
          <mxGeometry x="-0.8482" y="5" relative="1" as="geometry">
            <mxPoint x="1" as="offset" />
          </mxGeometry>
        </mxCell>
        <mxCell id="14B_oREcPOsQsigrCazK-83" value="&lt;font style=&quot;font-size: 18px;&quot;&gt;has&lt;/font&gt;" style="rhombus;whiteSpace=wrap;html=1;" parent="1" vertex="1">
          <mxGeometry x="-400" y="317.97" width="70" height="50" as="geometry" />
        </mxCell>
        <mxCell id="14B_oREcPOsQsigrCazK-84" value="" style="endArrow=none;html=1;rounded=0;entryX=0.5;entryY=1;entryDx=0;entryDy=0;exitX=0.5;exitY=0;exitDx=0;exitDy=0;" parent="1" source="14B_oREcPOsQsigrCazK-83" target="14B_oREcPOsQsigrCazK-70" edge="1">
          <mxGeometry width="50" height="50" relative="1" as="geometry">
            <mxPoint x="85" y="283.92999999999995" as="sourcePoint" />
            <mxPoint x="135" y="233.92999999999998" as="targetPoint" />
          </mxGeometry>
        </mxCell>
        <mxCell id="B5UOWCQT7WB5_f8kOvTA-4" value="M" style="edgeLabel;html=1;align=center;verticalAlign=middle;resizable=0;points=[];" vertex="1" connectable="0" parent="14B_oREcPOsQsigrCazK-84">
          <mxGeometry x="0.5848" y="-1" relative="1" as="geometry">
            <mxPoint as="offset" />
          </mxGeometry>
        </mxCell>
        <mxCell id="14B_oREcPOsQsigrCazK-86" value="&lt;font style=&quot;font-size: 18px;&quot;&gt;Role&lt;/font&gt;" style="rounded=0;whiteSpace=wrap;html=1;" parent="1" vertex="1">
          <mxGeometry x="-420" y="490" width="112.5" height="40" as="geometry" />
        </mxCell>
        <mxCell id="14B_oREcPOsQsigrCazK-87" value="" style="endArrow=none;html=1;rounded=0;entryX=0.5;entryY=1;entryDx=0;entryDy=0;exitX=0.5;exitY=0;exitDx=0;exitDy=0;" parent="1" source="14B_oREcPOsQsigrCazK-86" target="14B_oREcPOsQsigrCazK-83" edge="1">
          <mxGeometry width="50" height="50" relative="1" as="geometry">
            <mxPoint x="45" y="372.97" as="sourcePoint" />
            <mxPoint x="-362.5" y="372.97" as="targetPoint" />
          </mxGeometry>
        </mxCell>
        <mxCell id="B5UOWCQT7WB5_f8kOvTA-5" value="1" style="edgeLabel;html=1;align=center;verticalAlign=middle;resizable=0;points=[];" vertex="1" connectable="0" parent="14B_oREcPOsQsigrCazK-87">
          <mxGeometry x="-0.6876" y="-1" relative="1" as="geometry">
            <mxPoint as="offset" />
          </mxGeometry>
        </mxCell>
        <mxCell id="14B_oREcPOsQsigrCazK-88" value="&lt;u&gt;&lt;font style=&quot;font-size: 18px;&quot;&gt;ID&lt;/font&gt;&lt;/u&gt;" style="ellipse;whiteSpace=wrap;html=1;" parent="1" vertex="1">
          <mxGeometry x="-480" y="577.03" width="60" height="30" as="geometry" />
        </mxCell>
        <mxCell id="14B_oREcPOsQsigrCazK-89" value="" style="endArrow=none;html=1;rounded=0;entryX=0.176;entryY=1.003;entryDx=0;entryDy=0;entryPerimeter=0;exitX=0.5;exitY=0;exitDx=0;exitDy=0;" parent="1" source="14B_oREcPOsQsigrCazK-88" target="14B_oREcPOsQsigrCazK-86" edge="1">
          <mxGeometry width="50" height="50" relative="1" as="geometry">
            <mxPoint x="-150" y="587.03" as="sourcePoint" />
            <mxPoint x="-100" y="537.03" as="targetPoint" />
          </mxGeometry>
        </mxCell>
        <mxCell id="14B_oREcPOsQsigrCazK-90" value="&lt;font style=&quot;font-size: 18px;&quot;&gt;RuleName&lt;/font&gt;" style="ellipse;whiteSpace=wrap;html=1;direction=east;" parent="1" vertex="1">
          <mxGeometry x="-420" y="607.03" width="100" height="42.97" as="geometry" />
        </mxCell>
        <mxCell id="14B_oREcPOsQsigrCazK-91" value="" style="endArrow=none;html=1;rounded=0;entryX=0.5;entryY=1;entryDx=0;entryDy=0;" parent="1" source="14B_oREcPOsQsigrCazK-90" target="14B_oREcPOsQsigrCazK-86" edge="1">
          <mxGeometry width="50" height="50" relative="1" as="geometry">
            <mxPoint x="-150" y="587.03" as="sourcePoint" />
            <mxPoint x="-100" y="537.03" as="targetPoint" />
          </mxGeometry>
        </mxCell>
        <mxCell id="14B_oREcPOsQsigrCazK-100" value="&lt;font style=&quot;font-size: 18px;&quot;&gt;Instructor&lt;/font&gt;" style="rounded=0;whiteSpace=wrap;html=1;" parent="1" vertex="1">
          <mxGeometry x="479.53" y="921.36" width="120" height="40" as="geometry" />
        </mxCell>
        <mxCell id="14B_oREcPOsQsigrCazK-101" value="&lt;u&gt;&lt;font style=&quot;font-size: 18px;&quot;&gt;ID&lt;/font&gt;&lt;/u&gt;" style="ellipse;whiteSpace=wrap;html=1;" parent="1" vertex="1">
          <mxGeometry x="450" y="1010" width="70" height="30" as="geometry" />
        </mxCell>
        <mxCell id="14B_oREcPOsQsigrCazK-102" value="" style="endArrow=none;html=1;rounded=0;entryX=0.5;entryY=0;entryDx=0;entryDy=0;exitX=0.25;exitY=1;exitDx=0;exitDy=0;" parent="1" source="14B_oREcPOsQsigrCazK-100" target="14B_oREcPOsQsigrCazK-101" edge="1">
          <mxGeometry width="50" height="50" relative="1" as="geometry">
            <mxPoint x="590" y="960" as="sourcePoint" />
            <mxPoint x="590" y="1060" as="targetPoint" />
          </mxGeometry>
        </mxCell>
        <mxCell id="14B_oREcPOsQsigrCazK-103" value="&lt;font style=&quot;font-size: 18px;&quot;&gt;name&lt;/font&gt;" style="ellipse;whiteSpace=wrap;html=1;" parent="1" vertex="1">
          <mxGeometry x="522.26" y="1030" width="70" height="30" as="geometry" />
        </mxCell>
        <mxCell id="14B_oREcPOsQsigrCazK-104" value="" style="endArrow=none;html=1;rounded=0;exitX=0.5;exitY=1;exitDx=0;exitDy=0;entryX=0.5;entryY=0;entryDx=0;entryDy=0;" parent="1" source="14B_oREcPOsQsigrCazK-100" target="14B_oREcPOsQsigrCazK-103" edge="1">
          <mxGeometry width="50" height="50" relative="1" as="geometry">
            <mxPoint x="629.53" y="958.64" as="sourcePoint" />
            <mxPoint x="626.53" y="1048.64" as="targetPoint" />
          </mxGeometry>
        </mxCell>
        <mxCell id="14B_oREcPOsQsigrCazK-105" value="&lt;font style=&quot;font-size: 18px;&quot;&gt;Course&lt;/font&gt;" style="rounded=0;whiteSpace=wrap;html=1;" parent="1" vertex="1">
          <mxGeometry x="-120" y="902" width="115" height="50" as="geometry" />
        </mxCell>
        <mxCell id="14B_oREcPOsQsigrCazK-106" value="" style="endArrow=none;html=1;rounded=0;exitX=0.5;exitY=1;exitDx=0;exitDy=0;" parent="1" source="14B_oREcPOsQsigrCazK-108" target="14B_oREcPOsQsigrCazK-100" edge="1">
          <mxGeometry width="50" height="50" relative="1" as="geometry">
            <mxPoint x="589.53" y="491.36" as="sourcePoint" />
            <mxPoint x="254.52999999999997" y="411.36" as="targetPoint" />
          </mxGeometry>
        </mxCell>
        <mxCell id="B5UOWCQT7WB5_f8kOvTA-11" value="M" style="edgeLabel;html=1;align=center;verticalAlign=middle;resizable=0;points=[];" vertex="1" connectable="0" parent="14B_oREcPOsQsigrCazK-106">
          <mxGeometry x="0.8217" y="1" relative="1" as="geometry">
            <mxPoint y="-1" as="offset" />
          </mxGeometry>
        </mxCell>
        <mxCell id="14B_oREcPOsQsigrCazK-108" value="&lt;font style=&quot;font-size: 18px;&quot;&gt;include&lt;/font&gt;" style="rhombus;whiteSpace=wrap;html=1;" parent="1" vertex="1">
          <mxGeometry x="497.5" y="617.03" width="77.03" height="65.4" as="geometry" />
        </mxCell>
        <mxCell id="14B_oREcPOsQsigrCazK-110" value="" style="endArrow=none;html=1;rounded=0;entryX=0.75;entryY=1;entryDx=0;entryDy=0;" parent="1" source="14B_oREcPOsQsigrCazK-108" target="14B_oREcPOsQsigrCazK-14" edge="1">
          <mxGeometry width="50" height="50" relative="1" as="geometry">
            <mxPoint x="204.52999999999997" y="541.36" as="sourcePoint" />
            <mxPoint x="594.53" y="401.36" as="targetPoint" />
          </mxGeometry>
        </mxCell>
        <mxCell id="B5UOWCQT7WB5_f8kOvTA-12" value="M" style="edgeLabel;html=1;align=center;verticalAlign=middle;resizable=0;points=[];" vertex="1" connectable="0" parent="14B_oREcPOsQsigrCazK-110">
          <mxGeometry x="0.7929" y="-2" relative="1" as="geometry">
            <mxPoint y="-1" as="offset" />
          </mxGeometry>
        </mxCell>
        <mxCell id="14B_oREcPOsQsigrCazK-113" value="&lt;font style=&quot;font-size: 18px;&quot;&gt;name&lt;/font&gt;" style="ellipse;whiteSpace=wrap;html=1;" parent="1" vertex="1">
          <mxGeometry x="-232.5" y="1020" width="65" height="30" as="geometry" />
        </mxCell>
        <mxCell id="14B_oREcPOsQsigrCazK-114" value="&lt;font style=&quot;font-size: 18px;&quot;&gt;description&lt;/font&gt;" style="ellipse;whiteSpace=wrap;html=1;" parent="1" vertex="1">
          <mxGeometry x="-190" y="1050" width="100" height="40" as="geometry" />
        </mxCell>
        <mxCell id="14B_oREcPOsQsigrCazK-115" value="&lt;u&gt;&lt;font style=&quot;font-size: 18px;&quot;&gt;ID&lt;/font&gt;&lt;/u&gt;" style="ellipse;whiteSpace=wrap;html=1;" parent="1" vertex="1">
          <mxGeometry x="-270" y="970" width="50" height="30" as="geometry" />
        </mxCell>
        <mxCell id="14B_oREcPOsQsigrCazK-116" value="&lt;font style=&quot;font-size: 18px;&quot;&gt;min_degree&lt;/font&gt;" style="ellipse;whiteSpace=wrap;html=1;" parent="1" vertex="1">
          <mxGeometry x="-30" y="1045" width="110" height="45" as="geometry" />
        </mxCell>
        <mxCell id="14B_oREcPOsQsigrCazK-117" value="&lt;font style=&quot;font-size: 18px;&quot;&gt;max_degree&lt;/font&gt;" style="ellipse;whiteSpace=wrap;html=1;" parent="1" vertex="1">
          <mxGeometry x="-110" y="1090" width="105" height="42.5" as="geometry" />
        </mxCell>
        <mxCell id="14B_oREcPOsQsigrCazK-118" value="" style="endArrow=none;html=1;rounded=0;entryX=0;entryY=0.5;entryDx=0;entryDy=0;exitX=1;exitY=0.5;exitDx=0;exitDy=0;" parent="1" source="14B_oREcPOsQsigrCazK-115" target="14B_oREcPOsQsigrCazK-105" edge="1">
          <mxGeometry width="50" height="50" relative="1" as="geometry">
            <mxPoint x="-240" y="1010" as="sourcePoint" />
            <mxPoint x="82.5" y="797.28" as="targetPoint" />
          </mxGeometry>
        </mxCell>
        <mxCell id="14B_oREcPOsQsigrCazK-119" value="" style="endArrow=none;html=1;rounded=0;exitX=0.757;exitY=0;exitDx=0;exitDy=0;exitPerimeter=0;entryX=0;entryY=1;entryDx=0;entryDy=0;" parent="1" source="14B_oREcPOsQsigrCazK-113" target="14B_oREcPOsQsigrCazK-105" edge="1">
          <mxGeometry width="50" height="50" relative="1" as="geometry">
            <mxPoint x="-7.5" y="947.28" as="sourcePoint" />
            <mxPoint x="42.5" y="897.28" as="targetPoint" />
          </mxGeometry>
        </mxCell>
        <mxCell id="14B_oREcPOsQsigrCazK-120" value="" style="endArrow=none;html=1;rounded=0;exitX=0.25;exitY=1;exitDx=0;exitDy=0;entryX=0.5;entryY=0;entryDx=0;entryDy=0;" parent="1" source="14B_oREcPOsQsigrCazK-105" edge="1" target="14B_oREcPOsQsigrCazK-114">
          <mxGeometry width="50" height="50" relative="1" as="geometry">
            <mxPoint x="42.5" y="857.28" as="sourcePoint" />
            <mxPoint x="62.5" y="977.28" as="targetPoint" />
          </mxGeometry>
        </mxCell>
        <mxCell id="14B_oREcPOsQsigrCazK-121" value="" style="endArrow=none;html=1;rounded=0;entryX=0.5;entryY=0;entryDx=0;entryDy=0;exitX=0.5;exitY=1;exitDx=0;exitDy=0;" parent="1" target="14B_oREcPOsQsigrCazK-117" edge="1" source="14B_oREcPOsQsigrCazK-105">
          <mxGeometry width="50" height="50" relative="1" as="geometry">
            <mxPoint x="82.5" y="897.28" as="sourcePoint" />
            <mxPoint x="102.5" y="817.28" as="targetPoint" />
          </mxGeometry>
        </mxCell>
        <mxCell id="14B_oREcPOsQsigrCazK-122" value="" style="endArrow=none;html=1;rounded=0;exitX=0.75;exitY=1;exitDx=0;exitDy=0;entryX=0;entryY=0;entryDx=0;entryDy=0;" parent="1" source="14B_oREcPOsQsigrCazK-105" target="14B_oREcPOsQsigrCazK-116" edge="1">
          <mxGeometry width="50" height="50" relative="1" as="geometry">
            <mxPoint x="62.5" y="877.28" as="sourcePoint" />
            <mxPoint x="70" y="1000" as="targetPoint" />
          </mxGeometry>
        </mxCell>
        <mxCell id="14B_oREcPOsQsigrCazK-123" value="&lt;font style=&quot;font-size: 18px;&quot;&gt;take&lt;/font&gt;" style="rhombus;whiteSpace=wrap;html=1;" parent="1" vertex="1">
          <mxGeometry x="25" y="470" width="70" height="50" as="geometry" />
        </mxCell>
        <mxCell id="14B_oREcPOsQsigrCazK-124" value="" style="endArrow=none;html=1;rounded=0;entryX=0;entryY=0.75;entryDx=0;entryDy=0;exitX=0.5;exitY=0;exitDx=0;exitDy=0;" parent="1" source="14B_oREcPOsQsigrCazK-123" target="14B_oREcPOsQsigrCazK-19" edge="1">
          <mxGeometry width="50" height="50" relative="1" as="geometry">
            <mxPoint x="330" y="400" as="sourcePoint" />
            <mxPoint x="380" y="350" as="targetPoint" />
            <Array as="points">
              <mxPoint x="60" y="440" />
              <mxPoint x="60" y="205" />
            </Array>
          </mxGeometry>
        </mxCell>
        <mxCell id="B5UOWCQT7WB5_f8kOvTA-16" value="M" style="edgeLabel;html=1;align=center;verticalAlign=middle;resizable=0;points=[];" vertex="1" connectable="0" parent="14B_oREcPOsQsigrCazK-124">
          <mxGeometry x="0.9177" y="-1" relative="1" as="geometry">
            <mxPoint as="offset" />
          </mxGeometry>
        </mxCell>
        <mxCell id="14B_oREcPOsQsigrCazK-126" value="" style="endArrow=none;html=1;rounded=0;entryX=0.5;entryY=1;entryDx=0;entryDy=0;exitX=0.75;exitY=0;exitDx=0;exitDy=0;" parent="1" source="14B_oREcPOsQsigrCazK-105" target="14B_oREcPOsQsigrCazK-123" edge="1">
          <mxGeometry width="50" height="50" relative="1" as="geometry">
            <mxPoint x="165" y="842.27" as="sourcePoint" />
            <mxPoint x="167.5" y="732.27" as="targetPoint" />
            <Array as="points">
              <mxPoint x="-34" y="610" />
              <mxPoint x="60" y="610" />
            </Array>
          </mxGeometry>
        </mxCell>
        <mxCell id="B5UOWCQT7WB5_f8kOvTA-15" value="1" style="edgeLabel;html=1;align=center;verticalAlign=middle;resizable=0;points=[];" vertex="1" connectable="0" parent="14B_oREcPOsQsigrCazK-126">
          <mxGeometry x="-0.9171" relative="1" as="geometry">
            <mxPoint as="offset" />
          </mxGeometry>
        </mxCell>
        <mxCell id="14B_oREcPOsQsigrCazK-130" value="&lt;font style=&quot;font-size: 18px;&quot;&gt;include&lt;/font&gt;" style="rhombus;whiteSpace=wrap;html=1;" parent="1" vertex="1">
          <mxGeometry x="249.53" y="610" width="80.47" height="70.4" as="geometry" />
        </mxCell>
        <mxCell id="14B_oREcPOsQsigrCazK-131" value="" style="endArrow=none;html=1;rounded=0;entryX=0;entryY=1;entryDx=0;entryDy=0;exitX=1;exitY=0.25;exitDx=0;exitDy=0;" parent="1" source="14B_oREcPOsQsigrCazK-105" target="14B_oREcPOsQsigrCazK-130" edge="1">
          <mxGeometry width="50" height="50" relative="1" as="geometry">
            <mxPoint x="42.5" y="660" as="sourcePoint" />
            <mxPoint x="92.5" y="610" as="targetPoint" />
          </mxGeometry>
        </mxCell>
        <mxCell id="B5UOWCQT7WB5_f8kOvTA-23" value="M" style="edgeLabel;html=1;align=center;verticalAlign=middle;resizable=0;points=[];" vertex="1" connectable="0" parent="14B_oREcPOsQsigrCazK-131">
          <mxGeometry x="-0.8986" y="2" relative="1" as="geometry">
            <mxPoint as="offset" />
          </mxGeometry>
        </mxCell>
        <mxCell id="14B_oREcPOsQsigrCazK-132" value="" style="endArrow=none;html=1;rounded=0;entryX=0.37;entryY=0.973;entryDx=0;entryDy=0;entryPerimeter=0;exitX=1;exitY=0;exitDx=0;exitDy=0;" parent="1" source="14B_oREcPOsQsigrCazK-130" target="14B_oREcPOsQsigrCazK-14" edge="1">
          <mxGeometry width="50" height="50" relative="1" as="geometry">
            <mxPoint x="204.52999999999997" y="481.36" as="sourcePoint" />
            <mxPoint x="254.52999999999997" y="431.36" as="targetPoint" />
            <Array as="points" />
          </mxGeometry>
        </mxCell>
        <mxCell id="B5UOWCQT7WB5_f8kOvTA-13" value="M" style="edgeLabel;html=1;align=center;verticalAlign=middle;resizable=0;points=[];" vertex="1" connectable="0" parent="14B_oREcPOsQsigrCazK-132">
          <mxGeometry x="0.9013" y="1" relative="1" as="geometry">
            <mxPoint as="offset" />
          </mxGeometry>
        </mxCell>
        <mxCell id="14B_oREcPOsQsigrCazK-136" value="&lt;font style=&quot;font-size: 18px;&quot;&gt;include&lt;/font&gt;" style="rhombus;whiteSpace=wrap;html=1;" parent="1" vertex="1">
          <mxGeometry x="-122.5" y="730" width="85" height="60" as="geometry" />
        </mxCell>
        <mxCell id="14B_oREcPOsQsigrCazK-137" value="" style="endArrow=none;html=1;rounded=0;exitX=0.5;exitY=1;exitDx=0;exitDy=0;entryX=0.349;entryY=-0.014;entryDx=0;entryDy=0;entryPerimeter=0;" parent="1" source="14B_oREcPOsQsigrCazK-136" target="14B_oREcPOsQsigrCazK-105" edge="1">
          <mxGeometry width="50" height="50" relative="1" as="geometry">
            <mxPoint x="62.5" y="820" as="sourcePoint" />
            <mxPoint x="-80" y="900" as="targetPoint" />
          </mxGeometry>
        </mxCell>
        <mxCell id="B5UOWCQT7WB5_f8kOvTA-49" value="M" style="edgeLabel;html=1;align=center;verticalAlign=middle;resizable=0;points=[];" vertex="1" connectable="0" parent="14B_oREcPOsQsigrCazK-137">
          <mxGeometry x="0.7713" relative="1" as="geometry">
            <mxPoint as="offset" />
          </mxGeometry>
        </mxCell>
        <mxCell id="14B_oREcPOsQsigrCazK-138" value="" style="endArrow=none;html=1;rounded=0;entryX=0.5;entryY=1;entryDx=0;entryDy=0;exitX=0.5;exitY=0;exitDx=0;exitDy=0;" parent="1" source="14B_oREcPOsQsigrCazK-136" target="14B_oREcPOsQsigrCazK-3" edge="1">
          <mxGeometry width="50" height="50" relative="1" as="geometry">
            <mxPoint x="155" y="882.27" as="sourcePoint" />
            <mxPoint x="205" y="832.27" as="targetPoint" />
          </mxGeometry>
        </mxCell>
        <mxCell id="B5UOWCQT7WB5_f8kOvTA-19" value="1" style="edgeLabel;html=1;align=center;verticalAlign=middle;resizable=0;points=[];" vertex="1" connectable="0" parent="14B_oREcPOsQsigrCazK-138">
          <mxGeometry x="0.7821" relative="1" as="geometry">
            <mxPoint as="offset" />
          </mxGeometry>
        </mxCell>
        <mxCell id="14B_oREcPOsQsigrCazK-141" value="&lt;font style=&quot;font-size: 18px;&quot;&gt;teach&lt;/font&gt;" style="rhombus;whiteSpace=wrap;html=1;" parent="1" vertex="1">
          <mxGeometry x="239.52999999999997" y="916.36" width="70" height="50" as="geometry" />
        </mxCell>
        <mxCell id="14B_oREcPOsQsigrCazK-148" value="" style="endArrow=none;html=1;rounded=0;entryX=0;entryY=0.5;entryDx=0;entryDy=0;exitX=1;exitY=0.5;exitDx=0;exitDy=0;" parent="1" source="14B_oREcPOsQsigrCazK-141" target="14B_oREcPOsQsigrCazK-100" edge="1">
          <mxGeometry width="50" height="50" relative="1" as="geometry">
            <mxPoint x="154.52999999999997" y="941.36" as="sourcePoint" />
            <mxPoint x="234.52999999999997" y="511.36" as="targetPoint" />
          </mxGeometry>
        </mxCell>
        <mxCell id="B5UOWCQT7WB5_f8kOvTA-21" value="1" style="edgeLabel;html=1;align=center;verticalAlign=middle;resizable=0;points=[];" vertex="1" connectable="0" parent="14B_oREcPOsQsigrCazK-148">
          <mxGeometry x="0.8996" y="-1" relative="1" as="geometry">
            <mxPoint as="offset" />
          </mxGeometry>
        </mxCell>
        <mxCell id="14B_oREcPOsQsigrCazK-149" value="" style="endArrow=none;html=1;rounded=0;entryX=0;entryY=0.5;entryDx=0;entryDy=0;exitX=1;exitY=0.75;exitDx=0;exitDy=0;" parent="1" source="14B_oREcPOsQsigrCazK-105" target="14B_oREcPOsQsigrCazK-141" edge="1">
          <mxGeometry width="50" height="50" relative="1" as="geometry">
            <mxPoint x="22.5" y="820" as="sourcePoint" />
            <mxPoint x="72.5" y="770" as="targetPoint" />
          </mxGeometry>
        </mxCell>
        <mxCell id="B5UOWCQT7WB5_f8kOvTA-22" value="M" style="edgeLabel;html=1;align=center;verticalAlign=middle;resizable=0;points=[];" vertex="1" connectable="0" parent="14B_oREcPOsQsigrCazK-149">
          <mxGeometry x="-0.8397" y="3" relative="1" as="geometry">
            <mxPoint as="offset" />
          </mxGeometry>
        </mxCell>
        <mxCell id="14B_oREcPOsQsigrCazK-152" value="&lt;font style=&quot;font-size: 18px;&quot;&gt;Exam&lt;/font&gt;" style="rounded=0;whiteSpace=wrap;html=1;" parent="1" vertex="1">
          <mxGeometry x="1093" y="630.4" width="120" height="50" as="geometry" />
        </mxCell>
        <mxCell id="14B_oREcPOsQsigrCazK-153" value="&lt;font style=&quot;font-size: 18px;&quot;&gt;End_time&lt;/font&gt;" style="ellipse;whiteSpace=wrap;html=1;" parent="1" vertex="1">
          <mxGeometry x="1353" y="574.53" width="89" height="45" as="geometry" />
        </mxCell>
        <mxCell id="14B_oREcPOsQsigrCazK-155" value="&lt;u&gt;&lt;font style=&quot;font-size: 18px;&quot;&gt;ID&lt;/font&gt;&lt;/u&gt;" style="ellipse;whiteSpace=wrap;html=1;" parent="1" vertex="1">
          <mxGeometry x="1223" y="475" width="70" height="45" as="geometry" />
        </mxCell>
        <mxCell id="14B_oREcPOsQsigrCazK-157" value="&lt;font style=&quot;font-size: 18px;&quot;&gt;date&lt;/font&gt;" style="ellipse;whiteSpace=wrap;html=1;" parent="1" vertex="1">
          <mxGeometry x="1313" y="680.4" width="70" height="45" as="geometry" />
        </mxCell>
        <mxCell id="14B_oREcPOsQsigrCazK-158" value="&lt;font style=&quot;font-size: 18px;&quot;&gt;Allowance_Option&lt;/font&gt;" style="ellipse;whiteSpace=wrap;html=1;" parent="1" vertex="1">
          <mxGeometry x="1143" y="770" width="161" height="40" as="geometry" />
        </mxCell>
        <mxCell id="14B_oREcPOsQsigrCazK-159" value="&lt;font style=&quot;font-size: 18px;&quot;&gt;Start_time&lt;/font&gt;" style="ellipse;whiteSpace=wrap;html=1;" parent="1" vertex="1">
          <mxGeometry x="1279" y="530" width="90" height="45" as="geometry" />
        </mxCell>
        <mxCell id="14B_oREcPOsQsigrCazK-160" value="&lt;font style=&quot;font-size: 18px;&quot;&gt;total_time&lt;/font&gt;" style="ellipse;whiteSpace=wrap;html=1;align=center;dashed=1;" parent="1" vertex="1">
          <mxGeometry x="1359" y="635.4" width="105" height="40" as="geometry" />
        </mxCell>
        <mxCell id="14B_oREcPOsQsigrCazK-161" value="&lt;font style=&quot;font-size: 18px;&quot;&gt;type&lt;/font&gt;" style="ellipse;whiteSpace=wrap;html=1;" parent="1" vertex="1">
          <mxGeometry x="1279" y="735" width="80" height="35" as="geometry" />
        </mxCell>
        <mxCell id="14B_oREcPOsQsigrCazK-164" value="" style="endArrow=none;html=1;rounded=0;entryX=0.5;entryY=0;entryDx=0;entryDy=0;exitX=0.75;exitY=1;exitDx=0;exitDy=0;" parent="1" source="14B_oREcPOsQsigrCazK-152" target="14B_oREcPOsQsigrCazK-158" edge="1">
          <mxGeometry relative="1" as="geometry">
            <mxPoint x="1038" y="435.4" as="sourcePoint" />
            <mxPoint x="1198" y="435.4" as="targetPoint" />
          </mxGeometry>
        </mxCell>
        <mxCell id="14B_oREcPOsQsigrCazK-165" value="" style="endArrow=none;html=1;rounded=0;entryX=0;entryY=0;entryDx=0;entryDy=0;exitX=1;exitY=1;exitDx=0;exitDy=0;" parent="1" source="14B_oREcPOsQsigrCazK-152" target="14B_oREcPOsQsigrCazK-161" edge="1">
          <mxGeometry relative="1" as="geometry">
            <mxPoint x="1115" y="605.4" as="sourcePoint" />
            <mxPoint x="1200.5" y="515.4" as="targetPoint" />
          </mxGeometry>
        </mxCell>
        <mxCell id="14B_oREcPOsQsigrCazK-166" value="" style="endArrow=none;html=1;rounded=0;entryX=0;entryY=0.5;entryDx=0;entryDy=0;exitX=1;exitY=0.5;exitDx=0;exitDy=0;" parent="1" source="14B_oREcPOsQsigrCazK-152" target="14B_oREcPOsQsigrCazK-157" edge="1">
          <mxGeometry relative="1" as="geometry">
            <mxPoint x="1058" y="592.4" as="sourcePoint" />
            <mxPoint x="1139" y="483.4" as="targetPoint" />
          </mxGeometry>
        </mxCell>
        <mxCell id="14B_oREcPOsQsigrCazK-167" value="" style="endArrow=none;html=1;rounded=0;entryX=0;entryY=0.5;entryDx=0;entryDy=0;exitX=1;exitY=0.25;exitDx=0;exitDy=0;" parent="1" source="14B_oREcPOsQsigrCazK-152" target="14B_oREcPOsQsigrCazK-160" edge="1">
          <mxGeometry relative="1" as="geometry">
            <mxPoint x="1134" y="632.4" as="sourcePoint" />
            <mxPoint x="1215" y="523.4" as="targetPoint" />
          </mxGeometry>
        </mxCell>
        <mxCell id="14B_oREcPOsQsigrCazK-168" value="" style="endArrow=none;html=1;rounded=0;entryX=1;entryY=0;entryDx=0;entryDy=0;exitX=0;exitY=1;exitDx=0;exitDy=0;" parent="1" source="14B_oREcPOsQsigrCazK-153" target="14B_oREcPOsQsigrCazK-152" edge="1">
          <mxGeometry relative="1" as="geometry">
            <mxPoint x="1144" y="642.4" as="sourcePoint" />
            <mxPoint x="1225" y="533.4" as="targetPoint" />
          </mxGeometry>
        </mxCell>
        <mxCell id="14B_oREcPOsQsigrCazK-169" value="" style="endArrow=none;html=1;rounded=0;entryX=0;entryY=1;entryDx=0;entryDy=0;exitX=0.75;exitY=0;exitDx=0;exitDy=0;" parent="1" source="14B_oREcPOsQsigrCazK-152" target="14B_oREcPOsQsigrCazK-159" edge="1">
          <mxGeometry relative="1" as="geometry">
            <mxPoint x="1154" y="652.4" as="sourcePoint" />
            <mxPoint x="1235" y="543.4" as="targetPoint" />
          </mxGeometry>
        </mxCell>
        <mxCell id="14B_oREcPOsQsigrCazK-170" value="" style="endArrow=none;html=1;rounded=0;entryX=0.5;entryY=1;entryDx=0;entryDy=0;exitX=0.5;exitY=0;exitDx=0;exitDy=0;" parent="1" source="14B_oREcPOsQsigrCazK-152" target="14B_oREcPOsQsigrCazK-155" edge="1">
          <mxGeometry relative="1" as="geometry">
            <mxPoint x="1164" y="662.4" as="sourcePoint" />
            <mxPoint x="1245" y="553.4" as="targetPoint" />
          </mxGeometry>
        </mxCell>
        <mxCell id="14B_oREcPOsQsigrCazK-181" value="" style="endArrow=none;html=1;rounded=0;entryX=0.25;entryY=0;entryDx=0;entryDy=0;exitX=1;exitY=0.5;exitDx=0;exitDy=0;" parent="1" source="14B_oREcPOsQsigrCazK-182" target="14B_oREcPOsQsigrCazK-152" edge="1">
          <mxGeometry relative="1" as="geometry">
            <mxPoint x="297.5" y="-110" as="sourcePoint" />
            <mxPoint x="760" y="-60" as="targetPoint" />
            <Array as="points">
              <mxPoint x="1130" y="10" />
            </Array>
          </mxGeometry>
        </mxCell>
        <mxCell id="B5UOWCQT7WB5_f8kOvTA-46" value="M" style="edgeLabel;html=1;align=center;verticalAlign=middle;resizable=0;points=[];" vertex="1" connectable="0" parent="14B_oREcPOsQsigrCazK-181">
          <mxGeometry x="0.957" y="-2" relative="1" as="geometry">
            <mxPoint as="offset" />
          </mxGeometry>
        </mxCell>
        <mxCell id="14B_oREcPOsQsigrCazK-183" value="" style="endArrow=none;html=1;rounded=0;exitX=1;exitY=0.25;exitDx=0;exitDy=0;entryX=0.5;entryY=1;entryDx=0;entryDy=0;" parent="1" source="14B_oREcPOsQsigrCazK-19" target="14B_oREcPOsQsigrCazK-182" edge="1">
          <mxGeometry relative="1" as="geometry">
            <mxPoint x="320" y="160" as="sourcePoint" />
            <mxPoint x="500" as="targetPoint" />
            <Array as="points">
              <mxPoint x="500" y="176" />
            </Array>
          </mxGeometry>
        </mxCell>
        <mxCell id="B5UOWCQT7WB5_f8kOvTA-44" value="M" style="edgeLabel;html=1;align=center;verticalAlign=middle;resizable=0;points=[];" vertex="1" connectable="0" parent="14B_oREcPOsQsigrCazK-183">
          <mxGeometry x="-0.8687" y="-3" relative="1" as="geometry">
            <mxPoint as="offset" />
          </mxGeometry>
        </mxCell>
        <mxCell id="14B_oREcPOsQsigrCazK-182" value="&lt;font style=&quot;font-size: 18px;&quot;&gt;take&lt;/font&gt;" style="rhombus;whiteSpace=wrap;html=1;" parent="1" vertex="1">
          <mxGeometry x="465.53" y="-27.03" width="70" height="70" as="geometry" />
        </mxCell>
        <mxCell id="14B_oREcPOsQsigrCazK-186" value="&lt;font style=&quot;font-size: 18px;&quot;&gt;total_degree&lt;/font&gt;" style="ellipse;whiteSpace=wrap;html=1;" parent="1" vertex="1">
          <mxGeometry x="396.78999999999996" y="-80" width="125.47" height="40" as="geometry" />
        </mxCell>
        <mxCell id="14B_oREcPOsQsigrCazK-187" value="" style="endArrow=none;html=1;rounded=0;entryX=0.5;entryY=1;entryDx=0;entryDy=0;exitX=0;exitY=0;exitDx=0;exitDy=0;" parent="1" source="14B_oREcPOsQsigrCazK-182" target="14B_oREcPOsQsigrCazK-186" edge="1">
          <mxGeometry width="50" height="50" relative="1" as="geometry">
            <mxPoint x="77.5" y="-190" as="sourcePoint" />
            <mxPoint x="127.5" y="-240" as="targetPoint" />
          </mxGeometry>
        </mxCell>
        <mxCell id="14B_oREcPOsQsigrCazK-188" value="" style="endArrow=none;html=1;rounded=0;exitX=1;exitY=0.5;exitDx=0;exitDy=0;entryX=0;entryY=0.5;entryDx=0;entryDy=0;" parent="1" source="14B_oREcPOsQsigrCazK-189" target="14B_oREcPOsQsigrCazK-152" edge="1">
          <mxGeometry width="50" height="50" relative="1" as="geometry">
            <mxPoint x="140" y="200" as="sourcePoint" />
            <mxPoint x="920" y="371" as="targetPoint" />
          </mxGeometry>
        </mxCell>
        <mxCell id="B5UOWCQT7WB5_f8kOvTA-39" value="M" style="edgeLabel;html=1;align=center;verticalAlign=middle;resizable=0;points=[];" vertex="1" connectable="0" parent="14B_oREcPOsQsigrCazK-188">
          <mxGeometry x="0.8821" y="1" relative="1" as="geometry">
            <mxPoint as="offset" />
          </mxGeometry>
        </mxCell>
        <mxCell id="14B_oREcPOsQsigrCazK-190" value="" style="endArrow=none;html=1;rounded=0;entryX=0.5;entryY=0;entryDx=0;entryDy=0;exitX=1;exitY=0.5;exitDx=0;exitDy=0;" parent="1" source="14B_oREcPOsQsigrCazK-14" target="14B_oREcPOsQsigrCazK-189" edge="1">
          <mxGeometry width="50" height="50" relative="1" as="geometry">
            <mxPoint x="650" y="370" as="sourcePoint" />
            <mxPoint x="-90" as="targetPoint" />
            <Array as="points">
              <mxPoint x="710" y="445" />
            </Array>
          </mxGeometry>
        </mxCell>
        <mxCell id="14B_oREcPOsQsigrCazK-191" value="1" style="edgeLabel;html=1;align=center;verticalAlign=middle;resizable=0;points=[];" parent="14B_oREcPOsQsigrCazK-190" vertex="1" connectable="0">
          <mxGeometry x="-0.9375" y="-3" relative="1" as="geometry">
            <mxPoint y="1" as="offset" />
          </mxGeometry>
        </mxCell>
        <mxCell id="14B_oREcPOsQsigrCazK-189" value="&lt;font style=&quot;font-size: 18px;&quot;&gt;token in&lt;/font&gt;" style="rhombus;whiteSpace=wrap;html=1;" parent="1" vertex="1">
          <mxGeometry x="670" y="617.03" width="80" height="80" as="geometry" />
        </mxCell>
        <mxCell id="14B_oREcPOsQsigrCazK-193" value="" style="endArrow=none;html=1;rounded=0;entryX=0.5;entryY=0;entryDx=0;entryDy=0;exitX=0.75;exitY=1;exitDx=0;exitDy=0;" parent="1" source="14B_oREcPOsQsigrCazK-9" target="14B_oREcPOsQsigrCazK-194" edge="1">
          <mxGeometry width="50" height="50" relative="1" as="geometry">
            <mxPoint x="797.5" y="-90" as="sourcePoint" />
            <mxPoint x="-27.5" y="-300" as="targetPoint" />
          </mxGeometry>
        </mxCell>
        <mxCell id="B5UOWCQT7WB5_f8kOvTA-45" value="1" style="edgeLabel;html=1;align=center;verticalAlign=middle;resizable=0;points=[];" vertex="1" connectable="0" parent="14B_oREcPOsQsigrCazK-193">
          <mxGeometry x="-0.8182" y="-1" relative="1" as="geometry">
            <mxPoint as="offset" />
          </mxGeometry>
        </mxCell>
        <mxCell id="14B_oREcPOsQsigrCazK-194" value="belongs to" style="rhombus;whiteSpace=wrap;html=1;" parent="1" vertex="1">
          <mxGeometry x="770" y="367.97" width="80" height="80" as="geometry" />
        </mxCell>
        <mxCell id="14B_oREcPOsQsigrCazK-195" value="" style="endArrow=none;html=1;rounded=0;entryX=1;entryY=0.5;entryDx=0;entryDy=0;exitX=0;exitY=0.25;exitDx=0;exitDy=0;" parent="1" source="14B_oREcPOsQsigrCazK-152" target="14B_oREcPOsQsigrCazK-194" edge="1">
          <mxGeometry width="50" height="50" relative="1" as="geometry">
            <mxPoint x="1040" y="200" as="sourcePoint" />
            <mxPoint x="957.5" y="-130" as="targetPoint" />
            <Array as="points">
              <mxPoint x="990" y="643" />
              <mxPoint x="990" y="408" />
            </Array>
          </mxGeometry>
        </mxCell>
        <mxCell id="B5UOWCQT7WB5_f8kOvTA-38" value="M" style="edgeLabel;html=1;align=center;verticalAlign=middle;resizable=0;points=[];" vertex="1" connectable="0" parent="14B_oREcPOsQsigrCazK-195">
          <mxGeometry x="-0.9027" y="-3" relative="1" as="geometry">
            <mxPoint as="offset" />
          </mxGeometry>
        </mxCell>
        <mxCell id="14B_oREcPOsQsigrCazK-198" value="" style="endArrow=none;html=1;rounded=0;entryX=1;entryY=0.5;entryDx=0;entryDy=0;exitX=0;exitY=0.5;exitDx=0;exitDy=0;" parent="1" source="14B_oREcPOsQsigrCazK-199" target="14B_oREcPOsQsigrCazK-100" edge="1">
          <mxGeometry width="50" height="50" relative="1" as="geometry">
            <mxPoint x="760" y="370" as="sourcePoint" />
            <mxPoint x="810" y="320" as="targetPoint" />
          </mxGeometry>
        </mxCell>
        <mxCell id="B5UOWCQT7WB5_f8kOvTA-41" value="1" style="edgeLabel;html=1;align=center;verticalAlign=middle;resizable=0;points=[];" vertex="1" connectable="0" parent="14B_oREcPOsQsigrCazK-198">
          <mxGeometry x="0.9041" y="1" relative="1" as="geometry">
            <mxPoint as="offset" />
          </mxGeometry>
        </mxCell>
        <mxCell id="14B_oREcPOsQsigrCazK-200" value="" style="endArrow=none;html=1;rounded=0;entryX=0.5;entryY=0;entryDx=0;entryDy=0;exitX=0;exitY=0.75;exitDx=0;exitDy=0;" parent="1" source="14B_oREcPOsQsigrCazK-152" target="14B_oREcPOsQsigrCazK-199" edge="1">
          <mxGeometry width="50" height="50" relative="1" as="geometry">
            <mxPoint x="920" y="943.4615009014423" as="sourcePoint" />
            <mxPoint x="775" y="590" as="targetPoint" />
            <Array as="points">
              <mxPoint x="840" y="668" />
            </Array>
          </mxGeometry>
        </mxCell>
        <mxCell id="B5UOWCQT7WB5_f8kOvTA-40" value="M" style="edgeLabel;html=1;align=center;verticalAlign=middle;resizable=0;points=[];" vertex="1" connectable="0" parent="14B_oREcPOsQsigrCazK-200">
          <mxGeometry x="-0.9236" relative="1" as="geometry">
            <mxPoint as="offset" />
          </mxGeometry>
        </mxCell>
        <mxCell id="14B_oREcPOsQsigrCazK-199" value="&lt;font style=&quot;font-size: 18px;&quot;&gt;create&lt;/font&gt;" style="rhombus;whiteSpace=wrap;html=1;" parent="1" vertex="1">
          <mxGeometry x="800" y="901.36" width="80" height="80" as="geometry" />
        </mxCell>
        <mxCell id="14B_oREcPOsQsigrCazK-203" value="&lt;font style=&quot;font-size: 18px;&quot;&gt;Question&lt;/font&gt;" style="rounded=0;whiteSpace=wrap;html=1;" parent="1" vertex="1">
          <mxGeometry x="1038" y="1190" width="170" height="70" as="geometry" />
        </mxCell>
        <mxCell id="14B_oREcPOsQsigrCazK-204" value="&lt;font style=&quot;font-size: 18px;&quot;&gt;text&amp;nbsp;&lt;/font&gt;" style="ellipse;whiteSpace=wrap;html=1;" parent="1" vertex="1">
          <mxGeometry x="1003" y="1360" width="90" height="50" as="geometry" />
        </mxCell>
        <mxCell id="14B_oREcPOsQsigrCazK-205" value="&lt;font style=&quot;font-size: 18px;&quot;&gt;Model_answer&lt;/font&gt;" style="ellipse;whiteSpace=wrap;html=1;" parent="1" vertex="1">
          <mxGeometry x="1093" y="1390" width="131" height="50" as="geometry" />
        </mxCell>
        <mxCell id="14B_oREcPOsQsigrCazK-206" value="&lt;u&gt;&lt;font style=&quot;font-size: 18px;&quot;&gt;ID&lt;/font&gt;&lt;/u&gt;" style="ellipse;whiteSpace=wrap;html=1;" parent="1" vertex="1">
          <mxGeometry x="923" y="1290" width="90" height="50" as="geometry" />
        </mxCell>
        <mxCell id="14B_oREcPOsQsigrCazK-207" value="&lt;font style=&quot;font-size: 18px;&quot;&gt;type&lt;/font&gt;" style="ellipse;whiteSpace=wrap;html=1;" parent="1" vertex="1">
          <mxGeometry x="1178.5" y="1330" width="90" height="50" as="geometry" />
        </mxCell>
        <mxCell id="14B_oREcPOsQsigrCazK-209" value="" style="endArrow=none;html=1;rounded=0;entryX=0.111;entryY=1.016;entryDx=0;entryDy=0;entryPerimeter=0;" parent="1" source="14B_oREcPOsQsigrCazK-206" target="14B_oREcPOsQsigrCazK-203" edge="1">
          <mxGeometry width="50" height="50" relative="1" as="geometry">
            <mxPoint x="1064" y="1710" as="sourcePoint" />
            <mxPoint x="1114" y="1660" as="targetPoint" />
          </mxGeometry>
        </mxCell>
        <mxCell id="14B_oREcPOsQsigrCazK-210" value="" style="endArrow=none;html=1;rounded=0;entryX=0.208;entryY=1.026;entryDx=0;entryDy=0;entryPerimeter=0;exitX=0.5;exitY=0;exitDx=0;exitDy=0;" parent="1" source="14B_oREcPOsQsigrCazK-204" target="14B_oREcPOsQsigrCazK-203" edge="1">
          <mxGeometry width="50" height="50" relative="1" as="geometry">
            <mxPoint x="1074" y="1720" as="sourcePoint" />
            <mxPoint x="1073" y="1621" as="targetPoint" />
          </mxGeometry>
        </mxCell>
        <mxCell id="14B_oREcPOsQsigrCazK-211" value="" style="endArrow=none;html=1;rounded=0;entryX=0.5;entryY=1;entryDx=0;entryDy=0;" parent="1" source="14B_oREcPOsQsigrCazK-205" target="14B_oREcPOsQsigrCazK-203" edge="1">
          <mxGeometry width="50" height="50" relative="1" as="geometry">
            <mxPoint x="1084" y="1730" as="sourcePoint" />
            <mxPoint x="1083" y="1631" as="targetPoint" />
          </mxGeometry>
        </mxCell>
        <mxCell id="14B_oREcPOsQsigrCazK-212" value="" style="endArrow=none;html=1;rounded=0;entryX=0.75;entryY=1;entryDx=0;entryDy=0;" parent="1" source="14B_oREcPOsQsigrCazK-207" target="14B_oREcPOsQsigrCazK-203" edge="1">
          <mxGeometry width="50" height="50" relative="1" as="geometry">
            <mxPoint x="1094" y="1740" as="sourcePoint" />
            <mxPoint x="1093" y="1641" as="targetPoint" />
          </mxGeometry>
        </mxCell>
        <mxCell id="14B_oREcPOsQsigrCazK-213" value="" style="endArrow=none;html=1;rounded=0;exitX=0.5;exitY=0;exitDx=0;exitDy=0;entryX=0.25;entryY=1;entryDx=0;entryDy=0;" parent="1" source="14B_oREcPOsQsigrCazK-214" target="14B_oREcPOsQsigrCazK-152" edge="1">
          <mxGeometry width="50" height="50" relative="1" as="geometry">
            <mxPoint x="1064" y="1440" as="sourcePoint" />
            <mxPoint x="1094" y="1030" as="targetPoint" />
          </mxGeometry>
        </mxCell>
        <mxCell id="B5UOWCQT7WB5_f8kOvTA-47" value="M" style="edgeLabel;html=1;align=center;verticalAlign=middle;resizable=0;points=[];" vertex="1" connectable="0" parent="14B_oREcPOsQsigrCazK-213">
          <mxGeometry x="0.9009" y="1" relative="1" as="geometry">
            <mxPoint as="offset" />
          </mxGeometry>
        </mxCell>
        <mxCell id="14B_oREcPOsQsigrCazK-215" value="" style="endArrow=none;html=1;rounded=0;exitX=0.5;exitY=0;exitDx=0;exitDy=0;entryX=0.5;entryY=1;entryDx=0;entryDy=0;" parent="1" source="14B_oREcPOsQsigrCazK-203" target="14B_oREcPOsQsigrCazK-214" edge="1">
          <mxGeometry width="50" height="50" relative="1" as="geometry">
            <mxPoint x="1129" y="1540" as="sourcePoint" />
            <mxPoint x="1044" y="1225" as="targetPoint" />
          </mxGeometry>
        </mxCell>
        <mxCell id="B5UOWCQT7WB5_f8kOvTA-48" value="M" style="edgeLabel;html=1;align=center;verticalAlign=middle;resizable=0;points=[];" vertex="1" connectable="0" parent="14B_oREcPOsQsigrCazK-215">
          <mxGeometry x="-0.819" relative="1" as="geometry">
            <mxPoint as="offset" />
          </mxGeometry>
        </mxCell>
        <mxCell id="14B_oREcPOsQsigrCazK-214" value="&lt;font style=&quot;font-size: 18px;&quot;&gt;contain&lt;/font&gt;" style="rhombus;whiteSpace=wrap;html=1;" parent="1" vertex="1">
          <mxGeometry x="1083" y="930" width="80" height="80" as="geometry" />
        </mxCell>
        <mxCell id="14B_oREcPOsQsigrCazK-219" value="&lt;font style=&quot;font-size: 18px;&quot;&gt;degree&lt;/font&gt;" style="ellipse;whiteSpace=wrap;html=1;" parent="1" vertex="1">
          <mxGeometry x="1159" y="1010" width="75" height="40" as="geometry" />
        </mxCell>
        <mxCell id="14B_oREcPOsQsigrCazK-220" value="" style="endArrow=none;html=1;rounded=0;entryX=0;entryY=0;entryDx=0;entryDy=0;exitX=1;exitY=1;exitDx=0;exitDy=0;" parent="1" source="14B_oREcPOsQsigrCazK-214" target="14B_oREcPOsQsigrCazK-219" edge="1">
          <mxGeometry width="50" height="50" relative="1" as="geometry">
            <mxPoint x="1064" y="1300" as="sourcePoint" />
            <mxPoint x="1114" y="1250" as="targetPoint" />
          </mxGeometry>
        </mxCell>
      </root>
    </mxGraphModel>
  </diagram>
</mxfile>
